<svg width="1024" height="768" xmlns="http://www.w3.org/2000/svg">
  <!-- Fondo de la mazmorra -->
  <rect width="100%" height="100%" fill="#1a1a2e"/>
  
  <!-- Patrón de piedras para las paredes -->
  <pattern id="piedras" patternUnits="userSpaceOnUse" width="100" height="100">
    <rect width="50" height="25" x="0" y="0" fill="#2a2a3e" stroke="#0f0f1e" stroke-width="1"/>
    <rect width="50" height="25" x="50" y="0" fill="#2a2a3e" stroke="#0f0f1e" stroke-width="1"/>
    <rect width="50" height="25" x="0" y="25" fill="#2a2a3e" stroke="#0f0f1e" stroke-width="1"/>
    <rect width="50" height="25" x="50" y="25" fill="#2a2a3e" stroke="#0f0f1e" stroke-width="1"/>
    <rect width="50" height="25" x="0" y="50" fill="#2a2a3e" stroke="#0f0f1e" stroke-width="1"/>
    <rect width="50" height="25" x="50" y="50" fill="#2a2a3e" stroke="#0f0f1e" stroke-width="1"/>
    <rect width="50" height="25" x="0" y="75" fill="#2a2a3e" stroke="#0f0f1e" stroke-width="1"/>
    <rect width="50" height="25" x="50" y="75" fill="#2a2a3e" stroke="#0f0f1e" stroke-width="1"/>
  </pattern>
  
  <!-- Paredes laterales -->
  <rect x="0" y="0" width="100" height="768" fill="url(#piedras)"/>
  <rect x="924" y="0" width="100" height="768" fill="url(#piedras)"/>
  
  <!-- Techo -->
  <rect x="0" y="0" width="1024" height="100" fill="url(#piedras)"/>
  
  <!-- Piso -->
  <rect x="0" y="668" width="1024" height="100" fill="#2a2a3e"/>
  
  <!-- Líneas del piso -->
  <g stroke="#0f0f1e" stroke-width="1">
    <line x1="0" y1="668" x2="1024" y2="668"/>
    <line x1="0" y1="718" x2="1024" y2="718"/>
    
    <!-- Líneas verticales -->
    <line x1="100" y1="668" x2="100" y2="768"/>
    <line x1="200" y1="668" x2="200" y2="768"/>
    <line x1="300" y1="668" x2="300" y2="768"/>
    <line x1="400" y1="668" x2="400" y2="768"/>
    <line x1="500" y1="668" x2="500" y2="768"/>
    <line x1="600" y1="668" x2="600" y2="768"/>
    <line x1="700" y1="668" x2="700" y2="768"/>
    <line x1="800" y1="668" x2="800" y2="768"/>
    <line x1="900" y1="668" x2="900" y2="768"/>
  </g>
  
  <!-- Antorchas en las paredes -->
  <g>
    <!-- Antorcha 1 -->
    <rect x="150" y="200" width="10" height="30" fill="#5D4037"/>
    <polygon points="155,190 145,200 165,200" fill="#FF9800"/>
    <polygon points="155,180 150,195 160,195" fill="#F44336"/>
    
    <!-- Antorcha 2 -->
    <rect x="850" y="200" width="10" height="30" fill="#5D4037"/>
    <polygon points="855,190 845,200 865,200" fill="#FF9800"/>
    <polygon points="855,180 850,195 860,195" fill="#F44336"/>
    
    <!-- Antorcha 3 -->
    <rect x="150" y="500" width="10" height="30" fill="#5D4037"/>
    <polygon points="155,490 145,500 165,500" fill="#FF9800"/>
    <polygon points="155,480 150,495 160,495" fill="#F44336"/>
    
    <!-- Antorcha 4 -->
    <rect x="850" y="500" width="10" height="30" fill="#5D4037"/>
    <polygon points="855,490 845,500 865,500" fill="#FF9800"/>
    <polygon points="855,480 850,495 860,495" fill="#F44336"/>
  </g>
  
  <!-- Cadenas colgando del techo -->
  <g stroke="#616161" stroke-width="3">
    <line x1="300" y1="100" x2="300" y2="200"/>
    <line x1="700" y1="100" x2="700" y2="250"/>
    <line x1="500" y1="100" x2="500" y2="180"/>
  </g>
  
  <!-- Telarañas en las esquinas -->
  <g stroke="#AAAAAA" stroke-width="1" opacity="0.5">
    <line x1="0" y1="0" x2="50" y2="50"/>
    <line x1="0" y1="20" x2="40" y2="60"/>
    <line x1="20" y1="0" x2="60" y2="40"/>
    
    <line x1="1024" y1="0" x2="974" y2="50"/>
    <line x1="1024" y1="20" x2="984" y2="60"/>
    <line x1="1004" y1="0" x2="964" y2="40"/>
  </g>
  
  <!-- Manchas y detalles en la pared -->
  <g fill="#1a1a1a" opacity="0.3">
    <ellipse cx="200" cy="300" rx="30" ry="50"/>
    <ellipse cx="800" cy="400" rx="40" ry="20"/>
    <ellipse cx="400" cy="200" rx="20" ry="30"/>
    <ellipse cx="600" cy="350" rx="35" ry="25"/>
  </g>
</svg> 