<svg width="1024" height="768" xmlns="http://www.w3.org/2000/svg">
  <!-- Cielo con degradado -->
  <linearGradient id="cielo" x1="0%" y1="0%" x2="0%" y2="100%">
    <stop offset="0%" style="stop-color:#87CEEB;stop-opacity:1" />
    <stop offset="100%" style="stop-color:#E6F2FF;stop-opacity:1" />
  </linearGradient>
  <rect width="100%" height="100%" fill="url(#cielo)"/>
  
  <!-- Colinas lejanas -->
  <path d="M0,400 Q150,350 300,390 Q450,330 600,370 Q750,320 900,380 L1024,400 L1024,768 L0,768 Z" fill="#8BC34A" opacity="0.6"/>
  
  <!-- Camino principal -->
  <path d="M0,600 L1024,600 L1024,650 L0,650 Z" fill="#D7CCC8"/>
  
  <!-- Casas -->
  <g>
    <!-- Casa 1 -->
    <rect x="100" y="450" width="120" height="100" fill="#FFECB3"/>
    <polygon points="100,450 220,450 160,380" fill="#FF5722"/>
    <rect x="140" y="500" width="40" height="50" fill="#795548"/>
    <rect x="120" y="475" width="20" height="20" fill="#90CAF9"/>
    <rect x="180" y="475" width="20" height="20" fill="#90CAF9"/>
    
    <!-- Casa 2 -->
    <rect x="300" y="430" width="150" height="120" fill="#E1BEE7"/>
    <polygon points="300,430 450,430 375,350" fill="#673AB7"/>
    <rect x="350" y="480" width="50" height="70" fill="#4E342E"/>
    <rect x="320" y="460" width="25" height="25" fill="#BBDEFB"/>
    <rect x="405" y="460" width="25" height="25" fill="#BBDEFB"/>
    
    <!-- Casa 3 -->
    <rect x="550" y="470" width="130" height="80" fill="#FFCCBC"/>
    <polygon points="550,470 680,470 615,410" fill="#BF360C"/>
    <rect x="595" y="510" width="40" height="40" fill="#3E2723"/>
    <rect x="570" y="490" width="20" height="20" fill="#B3E5FC"/>
    <rect x="640" y="490" width="20" height="20" fill="#B3E5FC"/>
    
    <!-- Casa 4 -->
    <rect x="750" y="440" width="140" height="110" fill="#C8E6C9"/>
    <polygon points="750,440 890,440 820,370" fill="#2E7D32"/>
    <rect x="800" y="490" width="40" height="60" fill="#3E2723"/>
    <rect x="770" y="470" width="25" height="25" fill="#B3E5FC"/>
    <rect x="845" y="470" width="25" height="25" fill="#B3E5FC"/>
  </g>
  
  <!-- Ãrboles -->
  <g>
    <circle cx="50" cy="500" r="30" fill="#388E3C"/>
    <rect x="45" y="500" width="10" height="30" fill="#5D4037"/>
    
    <circle cx="250" cy="520" r="25" fill="#388E3C"/>
    <rect x="245" y="520" width="10" height="25" fill="#5D4037"/>
    
    <circle cx="500" cy="510" r="30" fill="#388E3C"/>
    <rect x="495" y="510" width="10" height="30" fill="#5D4037"/>
    
    <circle cx="950" cy="500" r="35" fill="#388E3C"/>
    <rect x="945" y="500" width="10" height="35" fill="#5D4037"/>
  </g>
  
  <!-- Farolas -->
  <g>
    <rect x="200" y="550" width="6" height="50" fill="#616161"/>
    <circle cx="203" cy="550" r="8" fill="#FFEB3B"/>
    
    <rect x="400" y="550" width="6" height="50" fill="#616161"/>
    <circle cx="403" cy="550" r="8" fill="#FFEB3B"/>
    
    <rect x="600" y="550" width="6" height="50" fill="#616161"/>
    <circle cx="603" cy="550" r="8" fill="#FFEB3B"/>
    
    <rect x="800" y="550" width="6" height="50" fill="#616161"/>
    <circle cx="803" cy="550" r="8" fill="#FFEB3B"/>
  </g>
  
  <!-- Suelo y hierba -->
  <rect x="0" y="650" width="1024" height="118" fill="#795548"/>
  <rect x="0" y="650" width="1024" height="10" fill="#4CAF50"/>
  
  <!-- Detalles de hierba -->
  <g fill="#4CAF50">
    <ellipse cx="100" cy="655" rx="20" ry="5"/>
    <ellipse cx="300" cy="655" rx="20" ry="5"/>
    <ellipse cx="500" cy="655" rx="20" ry="5"/>
    <ellipse cx="700" cy="655" rx="20" ry="5"/>
    <ellipse cx="900" cy="655" rx="20" ry="5"/>
  </g>
  
  <!-- Nubes -->
  <g fill="#FFFFFF" opacity="0.8">
    <ellipse cx="100" cy="150" rx="50" ry="20"/>
    <ellipse cx="300" cy="100" rx="70" ry="25"/>
    <ellipse cx="500" cy="180" rx="60" ry="20"/>
    <ellipse cx="700" cy="120" rx="80" ry="30"/>
    <ellipse cx="900" cy="160" rx="55" ry="25"/>
  </g>
</svg> 