<svg width="64" height="64" xmlns="http://www.w3.org/2000/svg">
  <!-- Poción de salud -->
  
  <!-- Contenido de la poción -->
  <linearGradient id="potionLiquid" x1="0%" y1="0%" x2="0%" y2="100%">
    <stop offset="0%" style="stop-color:#FF5555;stop-opacity:0.8" />
    <stop offset="100%" style="stop-color:#FF0000;stop-opacity:0.9" />
  </linearGradient>
  
  <!-- Brillo de la poción -->
  <linearGradient id="potionShine" x1="0%" y1="0%" x2="100%" y2="0%">
    <stop offset="0%" style="stop-color:#FFFFFF;stop-opacity:0.5" />
    <stop offset="100%" style="stop-color:#FFFFFF;stop-opacity:0" />
  </linearGradient>
  
  <!-- Cuerpo de la botella -->
  <path d="M26,15 L26,25 Q20,35 20,45 Q20,55 32,55 Q44,55 44,45 Q44,35 38,25 L38,15 Z" fill="url(#potionLiquid)" stroke="#7A0000" stroke-width="1.5"/>
  
  <!-- Cuello de la botella -->
  <rect x="26" y="10" width="12" height="5" fill="#DDDDDD" stroke="#7A0000" stroke-width="1.5"/>
  
  <!-- Tapa de la botella -->
  <rect x="25" y="8" width="14" height="2" rx="1" ry="1" fill="#8B4513" stroke="#7A0000" stroke-width="1"/>
  
  <!-- Burbujas en la poción -->
  <circle cx="28" cy="35" r="2" fill="#FFFFFF" opacity="0.7"/>
  <circle cx="35" cy="40" r="1.5" fill="#FFFFFF" opacity="0.7"/>
  <circle cx="30" cy="47" r="1" fill="#FFFFFF" opacity="0.7"/>
  <circle cx="34" cy="30" r="1" fill="#FFFFFF" opacity="0.7"/>
  
  <!-- Resplandor -->
  <ellipse cx="27" cy="42" rx="4" ry="8" fill="url(#potionShine)" opacity="0.6"/>
  
  <!-- Etiqueta de la poción -->
  <rect x="25" y="32" width="14" height="8" rx="2" ry="2" fill="#FFFFFF" stroke="#7A0000" stroke-width="0.5"/>
  
  <!-- Símbolo en la etiqueta -->
  <path d="M32,34 L32,38 M30,36 L34,36" stroke="#FF0000" stroke-width="1.5" stroke-linecap="round"/>
</svg> 