<svg width="384" height="64" xmlns="http://www.w3.org/2000/svg">
  <!-- 6 frames, cada uno de 64x64 píxeles -->
  
  <!-- Frame 1: Walk 1 -->
  <g transform="translate(0, 0)">
    <!-- Cuerpo principal -->
    <circle cx="32" cy="30" r="15" fill="#8E44AD"/>
    <!-- Cabeza -->
    <circle cx="32" cy="18" r="10" fill="#AF7AC5"/>
    <!-- Ojos -->
    <circle cx="29" cy="16" r="2" fill="#ECF0F1"/>
    <circle cx="35" cy="16" r="2" fill="#ECF0F1"/>
    <!-- Pupilas -->
    <circle cx="29" cy="16" r="1" fill="#E74C3C"/>
    <circle cx="35" cy="16" r="1" fill="#E74C3C"/>
    <!-- Boca -->
    <path d="M28,22 Q32,25 36,22" stroke="#E74C3C" stroke-width="1.5" fill="none"/>
    <!-- Cuernos -->
    <line x1="27" y1="12" x2="22" y2="7" stroke="#6C3483" stroke-width="3" stroke-linecap="round"/>
    <line x1="37" y1="12" x2="42" y2="7" stroke="#6C3483" stroke-width="3" stroke-linecap="round"/>
    <!-- Brazos con garras -->
    <line x1="20" y1="30" x2="12" y2="40" stroke="#8E44AD" stroke-width="5" stroke-linecap="round"/>
    <line x1="12" y1="40" x2="9" y2="43" stroke="#6C3483" stroke-width="2" stroke-linecap="round"/>
    <line x1="12" y1="40" x2="12" y2="45" stroke="#6C3483" stroke-width="2" stroke-linecap="round"/>
    <line x1="12" y1="40" x2="15" y2="43" stroke="#6C3483" stroke-width="2" stroke-linecap="round"/>
    
    <line x1="44" y1="30" x2="52" y2="40" stroke="#8E44AD" stroke-width="5" stroke-linecap="round"/>
    <line x1="52" y1="40" x2="49" y2="43" stroke="#6C3483" stroke-width="2" stroke-linecap="round"/>
    <line x1="52" y1="40" x2="52" y2="45" stroke="#6C3483" stroke-width="2" stroke-linecap="round"/>
    <line x1="52" y1="40" x2="55" y2="43" stroke="#6C3483" stroke-width="2" stroke-linecap="round"/>
    
    <!-- Piernas -->
    <line x1="27" y1="45" x2="22" y2="58" stroke="#6C3483" stroke-width="5" stroke-linecap="round"/>
    <line x1="37" y1="45" x2="42" y2="58" stroke="#6C3483" stroke-width="5" stroke-linecap="round"/>
  </g>
  
  <!-- Frame 2: Walk 2 -->
  <g transform="translate(64, 0)">
    <!-- Cuerpo principal -->
    <circle cx="32" cy="33" r="15" fill="#8E44AD"/>
    <!-- Cabeza -->
    <circle cx="32" cy="21" r="10" fill="#AF7AC5"/>
    <!-- Ojos -->
    <circle cx="29" cy="19" r="2" fill="#ECF0F1"/>
    <circle cx="35" cy="19" r="2" fill="#ECF0F1"/>
    <!-- Pupilas -->
    <circle cx="29" cy="19" r="1" fill="#E74C3C"/>
    <circle cx="35" cy="19" r="1" fill="#E74C3C"/>
    <!-- Boca -->
    <path d="M28,25 Q32,28 36,25" stroke="#E74C3C" stroke-width="1.5" fill="none"/>
    <!-- Cuernos -->
    <line x1="27" y1="15" x2="22" y2="10" stroke="#6C3483" stroke-width="3" stroke-linecap="round"/>
    <line x1="37" y1="15" x2="42" y2="10" stroke="#6C3483" stroke-width="3" stroke-linecap="round"/>
    <!-- Brazos con garras -->
    <line x1="20" y1="33" x2="15" y2="43" stroke="#8E44AD" stroke-width="5" stroke-linecap="round"/>
    <line x1="15" y1="43" x2="12" y2="46" stroke="#6C3483" stroke-width="2" stroke-linecap="round"/>
    <line x1="15" y1="43" x2="15" y2="48" stroke="#6C3483" stroke-width="2" stroke-linecap="round"/>
    <line x1="15" y1="43" x2="18" y2="46" stroke="#6C3483" stroke-width="2" stroke-linecap="round"/>
    
    <line x1="44" y1="33" x2="49" y2="43" stroke="#8E44AD" stroke-width="5" stroke-linecap="round"/>
    <line x1="49" y1="43" x2="46" y2="46" stroke="#6C3483" stroke-width="2" stroke-linecap="round"/>
    <line x1="49" y1="43" x2="49" y2="48" stroke="#6C3483" stroke-width="2" stroke-linecap="round"/>
    <line x1="49" y1="43" x2="52" y2="46" stroke="#6C3483" stroke-width="2" stroke-linecap="round"/>
    
    <!-- Piernas -->
    <line x1="27" y1="48" x2="27" y2="58" stroke="#6C3483" stroke-width="5" stroke-linecap="round"/>
    <line x1="37" y1="48" x2="37" y2="58" stroke="#6C3483" stroke-width="5" stroke-linecap="round"/>
  </g>
  
  <!-- Frame 3: Walk 3 -->
  <g transform="translate(128, 0)">
    <!-- Cuerpo principal -->
    <circle cx="32" cy="30" r="15" fill="#8E44AD"/>
    <!-- Cabeza -->
    <circle cx="32" cy="18" r="10" fill="#AF7AC5"/>
    <!-- Ojos -->
    <circle cx="29" cy="16" r="2" fill="#ECF0F1"/>
    <circle cx="35" cy="16" r="2" fill="#ECF0F1"/>
    <!-- Pupilas -->
    <circle cx="29" cy="16" r="1" fill="#E74C3C"/>
    <circle cx="35" cy="16" r="1" fill="#E74C3C"/>
    <!-- Boca -->
    <path d="M28,22 Q32,25 36,22" stroke="#E74C3C" stroke-width="1.5" fill="none"/>
    <!-- Cuernos -->
    <line x1="27" y1="12" x2="22" y2="7" stroke="#6C3483" stroke-width="3" stroke-linecap="round"/>
    <line x1="37" y1="12" x2="42" y2="7" stroke="#6C3483" stroke-width="3" stroke-linecap="round"/>
    <!-- Brazos con garras -->
    <line x1="20" y1="30" x2="10" y2="35" stroke="#8E44AD" stroke-width="5" stroke-linecap="round"/>
    <line x1="10" y1="35" x2="7" y2="38" stroke="#6C3483" stroke-width="2" stroke-linecap="round"/>
    <line x1="10" y1="35" x2="10" y2="40" stroke="#6C3483" stroke-width="2" stroke-linecap="round"/>
    <line x1="10" y1="35" x2="13" y2="38" stroke="#6C3483" stroke-width="2" stroke-linecap="round"/>
    
    <line x1="44" y1="30" x2="54" y2="35" stroke="#8E44AD" stroke-width="5" stroke-linecap="round"/>
    <line x1="54" y1="35" x2="51" y2="38" stroke="#6C3483" stroke-width="2" stroke-linecap="round"/>
    <line x1="54" y1="35" x2="54" y2="40" stroke="#6C3483" stroke-width="2" stroke-linecap="round"/>
    <line x1="54" y1="35" x2="57" y2="38" stroke="#6C3483" stroke-width="2" stroke-linecap="round"/>
    
    <!-- Piernas -->
    <line x1="27" y1="45" x2="32" y2="58" stroke="#6C3483" stroke-width="5" stroke-linecap="round"/>
    <line x1="37" y1="45" x2="32" y2="58" stroke="#6C3483" stroke-width="5" stroke-linecap="round"/>
  </g>
  
  <!-- Frame 4: Walk 4 -->
  <g transform="translate(192, 0)">
    <!-- Cuerpo principal -->
    <circle cx="32" cy="33" r="15" fill="#8E44AD"/>
    <!-- Cabeza -->
    <circle cx="32" cy="21" r="10" fill="#AF7AC5"/>
    <!-- Ojos -->
    <circle cx="29" cy="19" r="2" fill="#ECF0F1"/>
    <circle cx="35" cy="19" r="2" fill="#ECF0F1"/>
    <!-- Pupilas -->
    <circle cx="29" cy="19" r="1" fill="#E74C3C"/>
    <circle cx="35" cy="19" r="1" fill="#E74C3C"/>
    <!-- Boca -->
    <path d="M28,25 Q32,28 36,25" stroke="#E74C3C" stroke-width="1.5" fill="none"/>
    <!-- Cuernos -->
    <line x1="27" y1="15" x2="22" y2="10" stroke="#6C3483" stroke-width="3" stroke-linecap="round"/>
    <line x1="37" y1="15" x2="42" y2="10" stroke="#6C3483" stroke-width="3" stroke-linecap="round"/>
    <!-- Brazos con garras -->
    <line x1="20" y1="33" x2="10" y2="28" stroke="#8E44AD" stroke-width="5" stroke-linecap="round"/>
    <line x1="10" y1="28" x2="7" y2="25" stroke="#6C3483" stroke-width="2" stroke-linecap="round"/>
    <line x1="10" y1="28" x2="8" y2="30" stroke="#6C3483" stroke-width="2" stroke-linecap="round"/>
    <line x1="10" y1="28" x2="12" y2="25" stroke="#6C3483" stroke-width="2" stroke-linecap="round"/>
    
    <line x1="44" y1="33" x2="54" y2="28" stroke="#8E44AD" stroke-width="5" stroke-linecap="round"/>
    <line x1="54" y1="28" x2="51" y2="25" stroke="#6C3483" stroke-width="2" stroke-linecap="round"/>
    <line x1="54" y1="28" x2="56" y2="30" stroke="#6C3483" stroke-width="2" stroke-linecap="round"/>
    <line x1="54" y1="28" x2="57" y2="25" stroke="#6C3483" stroke-width="2" stroke-linecap="round"/>
    
    <!-- Piernas -->
    <line x1="27" y1="48" x2="22" y2="58" stroke="#6C3483" stroke-width="5" stroke-linecap="round"/>
    <line x1="37" y1="48" x2="42" y2="58" stroke="#6C3483" stroke-width="5" stroke-linecap="round"/>
  </g>
  
  <!-- Frame 5: Attack 1 -->
  <g transform="translate(256, 0)">
    <!-- Cuerpo principal -->
    <circle cx="32" cy="30" r="15" fill="#8E44AD"/>
    <!-- Cabeza -->
    <circle cx="32" cy="18" r="10" fill="#AF7AC5"/>
    <!-- Ojos -->
    <circle cx="29" cy="16" r="3" fill="#ECF0F1"/>
    <circle cx="35" cy="16" r="3" fill="#ECF0F1"/>
    <!-- Pupilas (rojas) -->
    <circle cx="29" cy="16" r="1.5" fill="#E74C3C"/>
    <circle cx="35" cy="16" r="1.5" fill="#E74C3C"/>
    <!-- Boca (abierta) -->
    <ellipse cx="32" cy="23" rx="4" ry="3" fill="#E74C3C"/>
    <line x1="30" y1="23" x2="34" y2="23" stroke="#7D3C98" stroke-width="1"/>
    <!-- Cuernos -->
    <line x1="27" y1="12" x2="22" y2="7" stroke="#6C3483" stroke-width="3" stroke-linecap="round"/>
    <line x1="37" y1="12" x2="42" y2="7" stroke="#6C3483" stroke-width="3" stroke-linecap="round"/>
    <!-- Brazos con garras (atacando) -->
    <line x1="20" y1="30" x2="8" y2="25" stroke="#8E44AD" stroke-width="5" stroke-linecap="round"/>
    <line x1="8" y1="25" x2="5" y2="22" stroke="#6C3483" stroke-width="2" stroke-linecap="round"/>
    <line x1="8" y1="25" x2="6" y2="27" stroke="#6C3483" stroke-width="2" stroke-linecap="round"/>
    <line x1="8" y1="25" x2="10" y2="22" stroke="#6C3483" stroke-width="2" stroke-linecap="round"/>
    
    <line x1="44" y1="30" x2="56" y2="25" stroke="#8E44AD" stroke-width="5" stroke-linecap="round"/>
    <line x1="56" y1="25" x2="53" y2="22" stroke="#6C3483" stroke-width="2" stroke-linecap="round"/>
    <line x1="56" y1="25" x2="58" y2="27" stroke="#6C3483" stroke-width="2" stroke-linecap="round"/>
    <line x1="56" y1="25" x2="59" y2="22" stroke="#6C3483" stroke-width="2" stroke-linecap="round"/>
    
    <!-- Piernas -->
    <line x1="27" y1="45" x2="22" y2="58" stroke="#6C3483" stroke-width="5" stroke-linecap="round"/>
    <line x1="37" y1="45" x2="42" y2="58" stroke="#6C3483" stroke-width="5" stroke-linecap="round"/>
  </g>
  
  <!-- Frame 6: Attack 2 -->
  <g transform="translate(320, 0)">
    <!-- Cuerpo principal -->
    <circle cx="32" cy="30" r="15" fill="#8E44AD"/>
    <!-- Cabeza -->
    <circle cx="32" cy="18" r="10" fill="#AF7AC5"/>
    <!-- Ojos -->
    <circle cx="29" cy="16" r="3" fill="#ECF0F1"/>
    <circle cx="35" cy="16" r="3" fill="#ECF0F1"/>
    <!-- Pupilas (rojas) -->
    <circle cx="29" cy="16" r="1.5" fill="#E74C3C"/>
    <circle cx="35" cy="16" r="1.5" fill="#E74C3C"/>
    <!-- Boca (abierta) -->
    <ellipse cx="32" cy="23" rx="4" ry="3" fill="#E74C3C"/>
    <line x1="30" y1="23" x2="34" y2="23" stroke="#7D3C98" stroke-width="1"/>
    <!-- Cuernos -->
    <line x1="27" y1="12" x2="22" y2="7" stroke="#6C3483" stroke-width="3" stroke-linecap="round"/>
    <line x1="37" y1="12" x2="42" y2="7" stroke="#6C3483" stroke-width="3" stroke-linecap="round"/>
    <!-- Brazos con garras (atacando hacia adelante) -->
    <line x1="20" y1="30" x2="12" y2="40" stroke="#8E44AD" stroke-width="5" stroke-linecap="round"/>
    <line x1="12" y1="40" x2="9" y2="43" stroke="#6C3483" stroke-width="2" stroke-linecap="round"/>
    <line x1="12" y1="40" x2="12" y2="45" stroke="#6C3483" stroke-width="2" stroke-linecap="round"/>
    <line x1="12" y1="40" x2="15" y2="43" stroke="#6C3483" stroke-width="2" stroke-linecap="round"/>
    
    <line x1="44" y1="30" x2="52" y2="40" stroke="#8E44AD" stroke-width="5" stroke-linecap="round"/>
    <line x1="52" y1="40" x2="49" y2="43" stroke="#6C3483" stroke-width="2" stroke-linecap="round"/>
    <line x1="52" y1="40" x2="52" y2="45" stroke="#6C3483" stroke-width="2" stroke-linecap="round"/>
    <line x1="52" y1="40" x2="55" y2="43" stroke="#6C3483" stroke-width="2" stroke-linecap="round"/>
    
    <!-- Piernas (posición de ataque) -->
    <line x1="27" y1="45" x2="22" y2="55" stroke="#6C3483" stroke-width="5" stroke-linecap="round"/>
    <line x1="37" y1="45" x2="42" y2="55" stroke="#6C3483" stroke-width="5" stroke-linecap="round"/>
  </g>
</svg> 