<svg width="512" height="64" xmlns="http://www.w3.org/2000/svg">
  <!-- 8 frames de explosión, cada uno de 64x64 píxeles -->
  
  <!-- Frame 1: Inicio de la explosión -->
  <g transform="translate(0, 0)">
    <circle cx="32" cy="32" r="10" fill="#FFFF00" opacity="0.8"/>
    <circle cx="32" cy="32" r="6" fill="#FF5500" opacity="0.9"/>
  </g>
  
  <!-- Frame 2: Explosión creciendo -->
  <g transform="translate(64, 0)">
    <circle cx="32" cy="32" r="15" fill="#FFFF00" opacity="0.8"/>
    <circle cx="32" cy="32" r="10" fill="#FF5500" opacity="0.9"/>
    <circle cx="32" cy="32" r="5" fill="#FF0000" opacity="1"/>
  </g>
  
  <!-- Frame 3: Explosión media -->
  <g transform="translate(128, 0)">
    <circle cx="32" cy="32" r="20" fill="#FFFF00" opacity="0.7"/>
    <circle cx="32" cy="32" r="15" fill="#FF7700" opacity="0.8"/>
    <circle cx="32" cy="32" r="10" fill="#FF5500" opacity="0.9"/>
    <circle cx="32" cy="32" r="5" fill="#FF0000" opacity="1"/>
    
    <!-- Pequeñas chispas -->
    <circle cx="42" cy="22" r="2" fill="#FFFFFF" opacity="0.9"/>
    <circle cx="25" cy="40" r="1" fill="#FFFFFF" opacity="0.9"/>
  </g>
  
  <!-- Frame 4: Explosión grande -->
  <g transform="translate(192, 0)">
    <circle cx="32" cy="32" r="25" fill="#FFFF00" opacity="0.6"/>
    <circle cx="32" cy="32" r="20" fill="#FF7700" opacity="0.7"/>
    <circle cx="32" cy="32" r="14" fill="#FF5500" opacity="0.8"/>
    <circle cx="32" cy="32" r="8" fill="#FF0000" opacity="0.9"/>
    
    <!-- Más chispas -->
    <circle cx="45" cy="18" r="2" fill="#FFFFFF" opacity="0.8"/>
    <circle cx="20" cy="45" r="2" fill="#FFFFFF" opacity="0.8"/>
    <circle cx="15" cy="30" r="1" fill="#FFFFFF" opacity="0.8"/>
    <circle cx="35" cy="15" r="1" fill="#FFFFFF" opacity="0.8"/>
  </g>
  
  <!-- Frame 5: Explosión máxima -->
  <g transform="translate(256, 0)">
    <circle cx="32" cy="32" r="30" fill="#FFFF00" opacity="0.5"/>
    <circle cx="32" cy="32" r="24" fill="#FF7700" opacity="0.6"/>
    <circle cx="32" cy="32" r="18" fill="#FF5500" opacity="0.7"/>
    <circle cx="32" cy="32" r="12" fill="#FF0000" opacity="0.8"/>
    <circle cx="32" cy="32" r="6" fill="#AA0000" opacity="0.9"/>
    
    <!-- Muchas chispas -->
    <circle cx="50" cy="14" r="2" fill="#FFFFFF" opacity="0.7"/>
    <circle cx="14" cy="50" r="2" fill="#FFFFFF" opacity="0.7"/>
    <circle cx="10" cy="30" r="1.5" fill="#FFFFFF" opacity="0.7"/>
    <circle cx="30" cy="10" r="1.5" fill="#FFFFFF" opacity="0.7"/>
    <circle cx="48" cy="35" r="1" fill="#FFFFFF" opacity="0.7"/>
    <circle cx="35" cy="48" r="1" fill="#FFFFFF" opacity="0.7"/>
  </g>
  
  <!-- Frame 6: Explosión disipándose -->
  <g transform="translate(320, 0)">
    <circle cx="32" cy="32" r="28" fill="#FFFF00" opacity="0.4"/>
    <circle cx="32" cy="32" r="22" fill="#FF7700" opacity="0.5"/>
    <circle cx="32" cy="32" r="16" fill="#FF5500" opacity="0.6"/>
    <circle cx="32" cy="32" r="10" fill="#FF0000" opacity="0.6"/>
    <circle cx="32" cy="32" r="5" fill="#AA0000" opacity="0.7"/>
    
    <!-- Chispas dispersándose -->
    <circle cx="52" cy="12" r="1.5" fill="#FFFFFF" opacity="0.6"/>
    <circle cx="12" cy="52" r="1.5" fill="#FFFFFF" opacity="0.6"/>
    <circle cx="8" cy="35" r="1" fill="#FFFFFF" opacity="0.6"/>
    <circle cx="35" cy="8" r="1" fill="#FFFFFF" opacity="0.6"/>
    <circle cx="50" cy="40" r="1" fill="#FFFFFF" opacity="0.6"/>
    <circle cx="40" cy="50" r="1" fill="#FFFFFF" opacity="0.6"/>
  </g>
  
  <!-- Frame 7: Explosión casi desaparecida -->
  <g transform="translate(384, 0)">
    <circle cx="32" cy="32" r="25" fill="#FFFF00" opacity="0.2"/>
    <circle cx="32" cy="32" r="20" fill="#FF7700" opacity="0.3"/>
    <circle cx="32" cy="32" r="14" fill="#FF5500" opacity="0.3"/>
    <circle cx="32" cy="32" r="8" fill="#FF0000" opacity="0.4"/>
    
    <!-- Pocas chispas restantes -->
    <circle cx="54" cy="10" r="1" fill="#FFFFFF" opacity="0.3"/>
    <circle cx="10" cy="54" r="1" fill="#FFFFFF" opacity="0.3"/>
    <circle cx="7" cy="38" r="0.5" fill="#FFFFFF" opacity="0.3"/>
    <circle cx="38" cy="7" r="0.5" fill="#FFFFFF" opacity="0.3"/>
  </g>
  
  <!-- Frame 8: Humo final -->
  <g transform="translate(448, 0)">
    <circle cx="32" cy="32" r="20" fill="#AAAAAA" opacity="0.2"/>
    <circle cx="32" cy="32" r="15" fill="#888888" opacity="0.3"/>
    <circle cx="32" cy="32" r="10" fill="#666666" opacity="0.2"/>
    <circle cx="32" cy="32" r="5" fill="#444444" opacity="0.1"/>
  </g>
</svg> 